<svg width="140" height="23" viewBox="0 0 140 23" fill="none" xmlns="http://www.w3.org/2000/svg">
<path d="M0.93 9.125H12.81C13.06 9.125 13.2775 9.0325 13.4625 8.8475C13.6475 8.6625 13.74 8.445 13.74 8.195C13.74 7.945 13.6475 7.725 13.4625 7.535C13.2775 7.345 13.06 7.25 12.81 7.25H0.93C0.68 7.25 0.4625 7.345 0.2775 7.535C0.0925 7.725 0 7.945 0 8.195C0 8.445 0.0925 8.6625 0.2775 8.8475C0.4625 9.0325 0.68 9.125 0.93 9.125ZM0.93 12.875H12.81C13.06 12.875 13.2775 12.7825 13.4625 12.5975C13.6475 12.4125 13.74 12.195 13.74 11.945C13.74 11.695 13.6475 11.475 13.4625 11.285C13.2775 11.095 13.06 11 12.81 11H0.93C0.68 11 0.4625 11.095 0.2775 11.285C0.0925 11.475 0 11.695 0 11.945C0 12.195 0.0925 12.4125 0.2775 12.5975C0.4625 12.7825 0.68 12.875 0.93 12.875ZM0.93 16.625H12.81C13.06 16.625 13.2775 16.5325 13.4625 16.3475C13.6475 16.1625 13.74 15.945 13.74 15.695C13.74 15.445 13.6475 15.225 13.4625 15.035C13.2775 14.845 13.06 14.75 12.81 14.75H0.93C0.68 14.75 0.4625 14.845 0.2775 15.035C0.0925 15.225 0 15.445 0 15.695C0 15.945 0.0925 16.1625 0.2775 16.3475C0.4625 16.5325 0.68 16.625 0.93 16.625Z" fill="#333333"/>
<path d="M23.9456 6.63511L20.3156 10.2501L16.6856 6.63511C16.5256 6.46511 16.3156 6.38011 16.0556 6.38011C15.7956 6.38011 15.5506 6.46511 15.3206 6.63511C15.1506 6.79511 15.0656 7.02011 15.0656 7.31011C15.0656 7.45011 15.0881 7.56761 15.1331 7.66261C15.1781 7.75761 15.2606 7.85011 15.3806 7.94011L18.9356 11.6301L15.3206 15.2601C14.8906 15.6901 14.8931 16.1226 15.3281 16.5576C15.7631 16.9926 16.1956 16.9951 16.6256 16.5651L20.2556 12.9351L23.8856 16.5651C24.0456 16.7351 24.2731 16.8201 24.5681 16.8201C24.8631 16.8201 25.0906 16.7351 25.2506 16.5651C25.3506 16.4751 25.4181 16.3776 25.4531 16.2726C25.4881 16.1676 25.5056 16.0351 25.5056 15.8751C25.5056 15.5851 25.4206 15.3551 25.2506 15.1851L21.6356 11.6301L25.3106 8.00011C25.7606 7.56011 25.7606 7.12511 25.3106 6.69511C25.0906 6.44511 24.8706 6.31511 24.6506 6.30511C24.4306 6.29511 24.1956 6.40511 23.9456 6.63511Z" fill="#333333"/>
</svg>
