<svg width="140" height="24" viewBox="0 0 140 24" fill="none" xmlns="http://www.w3.org/2000/svg">
<path d="M0.93 9.625H12.81C13.06 9.625 13.2775 9.5325 13.4625 9.3475C13.6475 9.1625 13.74 8.945 13.74 8.695C13.74 8.445 13.6475 8.225 13.4625 8.035C13.2775 7.845 13.06 7.75 12.81 7.75H0.93C0.68 7.75 0.4625 7.845 0.2775 8.035C0.0925 8.225 0 8.445 0 8.695C0 8.945 0.0925 9.1625 0.2775 9.3475C0.4625 9.5325 0.68 9.625 0.93 9.625ZM0.93 13.375H12.81C13.06 13.375 13.2775 13.2825 13.4625 13.0975C13.6475 12.9125 13.74 12.695 13.74 12.445C13.74 12.195 13.6475 11.975 13.4625 11.785C13.2775 11.595 13.06 11.5 12.81 11.5H0.93C0.68 11.5 0.4625 11.595 0.2775 11.785C0.0925 11.975 0 12.195 0 12.445C0 12.695 0.0925 12.9125 0.2775 13.0975C0.4625 13.2825 0.68 13.375 0.93 13.375ZM0.93 17.125H12.81C13.06 17.125 13.2775 17.0325 13.4625 16.8475C13.6475 16.6625 13.74 16.445 13.74 16.195C13.74 15.945 13.6475 15.725 13.4625 15.535C13.2775 15.345 13.06 15.25 12.81 15.25H0.93C0.68 15.25 0.4625 15.345 0.2775 15.535C0.0925 15.725 0 15.945 0 16.195C0 16.445 0.0925 16.6625 0.2775 16.8475C0.4625 17.0325 0.68 17.125 0.93 17.125Z" fill="#333333"/>
<path d="M23.9456 7.13511L20.3156 10.7501L16.6856 7.13511C16.5256 6.96511 16.3156 6.88011 16.0556 6.88011C15.7956 6.88011 15.5506 6.96511 15.3206 7.13511C15.1506 7.29511 15.0656 7.52011 15.0656 7.81011C15.0656 7.95011 15.0881 8.06761 15.1331 8.16261C15.1781 8.25761 15.2606 8.35011 15.3806 8.44011L18.9356 12.1301L15.3206 15.7601C14.8906 16.1901 14.8931 16.6226 15.3281 17.0576C15.7631 17.4926 16.1956 17.4951 16.6256 17.0651L20.2556 13.4351L23.8856 17.0651C24.0456 17.2351 24.2731 17.3201 24.5681 17.3201C24.8631 17.3201 25.0906 17.2351 25.2506 17.0651C25.3506 16.9751 25.4181 16.8776 25.4531 16.7726C25.4881 16.6676 25.5056 16.5351 25.5056 16.3751C25.5056 16.0851 25.4206 15.8551 25.2506 15.6851L21.6356 12.1301L25.3106 8.50011C25.7606 8.06011 25.7606 7.62511 25.3106 7.19511C25.0906 6.94511 24.8706 6.81511 24.6506 6.80511C24.4306 6.79511 24.1956 6.90511 23.9456 7.13511Z" fill="#333333"/>
</svg>
