<svg width="16" height="16" viewBox="0 0 16 16" fill="none" xmlns="http://www.w3.org/2000/svg">
<g clip-path="url(#clip0_1_280)">
<path d="M6.60775 1.17477L4.92775 4.72977L1.17775 5.29977C0.977748 5.31977 0.810248 5.41977 0.675248 5.59977C0.540248 5.77977 0.475248 5.98477 0.480248 6.21477C0.485248 6.44477 0.567748 6.63977 0.727748 6.79977L3.42775 9.54477L2.79775 13.4898C2.75775 13.7098 2.79775 13.9073 2.91775 14.0823C3.03775 14.2573 3.20025 14.3723 3.40525 14.4273C3.61025 14.4823 3.80275 14.4598 3.98275 14.3598L7.35775 12.6048L10.7327 14.3598C10.9327 14.4598 11.1352 14.4823 11.3402 14.4273C11.5452 14.3723 11.7027 14.2573 11.8127 14.0823C11.9227 13.9073 11.9577 13.7098 11.9177 13.4898L11.3027 9.54477L13.9877 6.79977C14.1477 6.63977 14.2302 6.44977 14.2352 6.22977C14.2402 6.00977 14.1777 5.80977 14.0477 5.62977C13.9177 5.44977 13.7527 5.33977 13.5527 5.29977L9.80275 4.72977L8.10775 1.17477C8.00775 0.974769 7.85775 0.837269 7.65775 0.762269C7.45775 0.687269 7.25775 0.687269 7.05775 0.762269C6.85775 0.837269 6.70775 0.974769 6.60775 1.17477Z" fill="#CCD6DF"/>
</g>
<defs>
<clipPath id="clip0_1_280">
<rect width="15" height="15" fill="white" transform="matrix(1 0 0 -1 0.47998 15.0498)"/>
</clipPath>
</defs>
</svg>
