<svg width="16" height="16" viewBox="0 0 16 16" fill="none" xmlns="http://www.w3.org/2000/svg">
<g clip-path="url(#clip0_1_214)">
<path d="M6.59777 1.92477L4.91777 5.47977L1.16777 6.04977C0.967769 6.06977 0.800269 6.16977 0.665269 6.34977C0.530269 6.52977 0.465269 6.73477 0.470269 6.96477C0.475269 7.19477 0.557769 7.38977 0.717769 7.54977L3.41777 10.2948L2.78777 14.2398C2.74777 14.4598 2.78777 14.6573 2.90777 14.8323C3.02777 15.0073 3.19027 15.1223 3.39527 15.1773C3.60027 15.2323 3.79277 15.2098 3.97277 15.1098L7.34777 13.3548L10.7228 15.1098C10.9228 15.2098 11.1253 15.2323 11.3303 15.1773C11.5353 15.1223 11.6928 15.0073 11.8028 14.8323C11.9128 14.6573 11.9478 14.4598 11.9078 14.2398L11.2928 10.2948L13.9778 7.54977C14.1378 7.38977 14.2203 7.19977 14.2253 6.97977C14.2303 6.75977 14.1678 6.55977 14.0378 6.37977C13.9078 6.19977 13.7428 6.08977 13.5428 6.04977L9.79277 5.47977L8.09777 1.92477C7.99777 1.72477 7.84777 1.58727 7.64777 1.51227C7.44777 1.43727 7.24777 1.43727 7.04777 1.51227C6.84777 1.58727 6.69777 1.72477 6.59777 1.92477Z" fill="#CCD6DF"/>
</g>
<defs>
<clipPath id="clip0_1_214">
<rect width="15" height="15" fill="white" transform="matrix(1 0 0 -1 0.470001 15.7998)"/>
</clipPath>
</defs>
</svg>
