<svg width="16" height="16" viewBox="0 0 16 16" fill="none" xmlns="http://www.w3.org/2000/svg">
<g clip-path="url(#clip0_1_247)">
<path d="M6.56779 1.17477L4.88779 4.72977L1.13779 5.29977C0.937786 5.31977 0.770286 5.41977 0.635286 5.59977C0.500286 5.77977 0.435286 5.98477 0.440286 6.21477C0.445286 6.44477 0.527786 6.63977 0.687786 6.79977L3.38779 9.54477L2.75779 13.4898C2.71779 13.7098 2.75779 13.9073 2.87779 14.0823C2.99779 14.2573 3.16029 14.3723 3.36529 14.4273C3.57029 14.4823 3.76279 14.4598 3.94279 14.3598L7.31779 12.6048L10.6928 14.3598C10.8928 14.4598 11.0953 14.4823 11.3003 14.4273C11.5053 14.3723 11.6628 14.2573 11.7728 14.0823C11.8828 13.9073 11.9178 13.7098 11.8778 13.4898L11.2628 9.54477L13.9478 6.79977C14.1078 6.63977 14.1903 6.44977 14.1953 6.22977C14.2003 6.00977 14.1378 5.80977 14.0078 5.62977C13.8778 5.44977 13.7128 5.33977 13.5128 5.29977L9.76279 4.72977L8.06779 1.17477C7.96779 0.974769 7.81779 0.837269 7.61779 0.762269C7.41779 0.687269 7.21779 0.687269 7.01779 0.762269C6.81779 0.837269 6.66779 0.974769 6.56779 1.17477Z" fill="#CCD6DF"/>
</g>
<defs>
<clipPath id="clip0_1_247">
<rect width="15" height="15" fill="white" transform="matrix(1 0 0 -1 0.440018 15.0498)"/>
</clipPath>
</defs>
</svg>
