<svg width="16" height="23" viewBox="0 0 16 23" fill="none" xmlns="http://www.w3.org/2000/svg">
<g clip-path="url(#clip0_1_277)">
<g clip-path="url(#clip1_1_277)">
<path d="M6.60775 4.92477L4.92775 8.47977L1.17775 9.04977C0.977748 9.06977 0.810248 9.16977 0.675248 9.34977C0.540248 9.52977 0.475248 9.73477 0.480248 9.96477C0.485248 10.1948 0.567748 10.3898 0.727748 10.5498L3.42775 13.2948L2.79775 17.2398C2.75775 17.4598 2.79775 17.6573 2.91775 17.8323C3.03775 18.0073 3.20025 18.1223 3.40525 18.1773C3.61025 18.2323 3.80275 18.2098 3.98275 18.1098L7.35775 16.3548L10.7327 18.1098C10.9327 18.2098 11.1352 18.2323 11.3402 18.1773C11.5452 18.1223 11.7027 18.0073 11.8127 17.8323C11.9227 17.6573 11.9577 17.4598 11.9177 17.2398L11.3027 13.2948L13.9877 10.5498C14.1477 10.3898 14.2302 10.1998 14.2352 9.97977C14.2402 9.75977 14.1777 9.55977 14.0477 9.37977C13.9177 9.19977 13.7527 9.08977 13.5527 9.04977L9.80275 8.47977L8.10775 4.92477C8.00775 4.72477 7.85775 4.58727 7.65775 4.51227C7.45775 4.43727 7.25775 4.43727 7.05775 4.51227C6.85775 4.58727 6.70775 4.72477 6.60775 4.92477Z" fill="#F0AD4E"/>
</g>
</g>
<defs>
<clipPath id="clip0_1_277">
<rect width="15" height="22.5" fill="white" transform="translate(0.47998 0.0498047)"/>
</clipPath>
<clipPath id="clip1_1_277">
<rect width="15" height="22.5" fill="white" transform="matrix(1 0 0 -1 0.47998 22.5498)"/>
</clipPath>
</defs>
</svg>
