<svg width="16" height="23" viewBox="0 0 16 23" fill="none" xmlns="http://www.w3.org/2000/svg">
<g clip-path="url(#clip0_1_244)">
<g clip-path="url(#clip1_1_244)">
<path d="M6.56779 4.92477L4.88779 8.47977L1.13779 9.04977C0.937786 9.06977 0.770286 9.16977 0.635286 9.34977C0.500286 9.52977 0.435286 9.73477 0.440286 9.96477C0.445286 10.1948 0.527786 10.3898 0.687786 10.5498L3.38779 13.2948L2.75779 17.2398C2.71779 17.4598 2.75779 17.6573 2.87779 17.8323C2.99779 18.0073 3.16029 18.1223 3.36529 18.1773C3.57029 18.2323 3.76279 18.2098 3.94279 18.1098L7.31779 16.3548L10.6928 18.1098C10.8928 18.2098 11.0953 18.2323 11.3003 18.1773C11.5053 18.1223 11.6628 18.0073 11.7728 17.8323C11.8828 17.6573 11.9178 17.4598 11.8778 17.2398L11.2628 13.2948L13.9478 10.5498C14.1078 10.3898 14.1903 10.1998 14.1953 9.97977C14.2003 9.75977 14.1378 9.55977 14.0078 9.37977C13.8778 9.19977 13.7128 9.08977 13.5128 9.04977L9.76279 8.47977L8.06779 4.92477C7.96779 4.72477 7.81779 4.58727 7.61779 4.51227C7.41779 4.43727 7.21779 4.43727 7.01779 4.51227C6.81779 4.58727 6.66779 4.72477 6.56779 4.92477Z" fill="#F0AD4E"/>
</g>
</g>
<defs>
<clipPath id="clip0_1_244">
<rect width="15" height="22.5" fill="white" transform="translate(0.440018 0.0498047)"/>
</clipPath>
<clipPath id="clip1_1_244">
<rect width="15" height="22.5" fill="white" transform="matrix(1 0 0 -1 0.440018 22.5498)"/>
</clipPath>
</defs>
</svg>
