<svg width="16" height="24" viewBox="0 0 16 24" fill="none" xmlns="http://www.w3.org/2000/svg">
<g clip-path="url(#clip0_1_211)">
<g clip-path="url(#clip1_1_211)">
<path d="M6.59777 5.67477L4.91777 9.22977L1.16777 9.79977C0.967769 9.81977 0.800269 9.91977 0.665269 10.0998C0.530269 10.2798 0.465269 10.4848 0.470269 10.7148C0.475269 10.9448 0.557769 11.1398 0.717769 11.2998L3.41777 14.0448L2.78777 17.9898C2.74777 18.2098 2.78777 18.4073 2.90777 18.5823C3.02777 18.7573 3.19027 18.8723 3.39527 18.9273C3.60027 18.9823 3.79277 18.9598 3.97277 18.8598L7.34777 17.1048L10.7228 18.8598C10.9228 18.9598 11.1253 18.9823 11.3303 18.9273C11.5353 18.8723 11.6928 18.7573 11.8028 18.5823C11.9128 18.4073 11.9478 18.2098 11.9078 17.9898L11.2928 14.0448L13.9778 11.2998C14.1378 11.1398 14.2203 10.9498 14.2253 10.7298C14.2303 10.5098 14.1678 10.3098 14.0378 10.1298C13.9078 9.94977 13.7428 9.83977 13.5428 9.79977L9.79277 9.22977L8.09777 5.67477C7.99777 5.47477 7.84777 5.33727 7.64777 5.26227C7.44777 5.18727 7.24777 5.18727 7.04777 5.26227C6.84777 5.33727 6.69777 5.47477 6.59777 5.67477Z" fill="#F0AD4E"/>
</g>
</g>
<defs>
<clipPath id="clip0_1_211">
<rect width="15" height="22.5" fill="white" transform="translate(0.470001 0.800049)"/>
</clipPath>
<clipPath id="clip1_1_211">
<rect width="15" height="22.5" fill="white" transform="matrix(1 0 0 -1 0.470001 23.2998)"/>
</clipPath>
</defs>
</svg>
