<svg width="33" height="33" viewBox="0 0 33 33" fill="none" xmlns="http://www.w3.org/2000/svg">
<g clip-path="url(#clip0_1_145)">
<path d="M10.3133 10.2167C9.89913 10.2167 9.56334 10.5525 9.56334 10.9667C9.56334 11.3809 9.89913 11.7167 10.3133 11.7167V10.2167ZM23.6467 11.7167C24.0609 11.7167 24.3967 11.3809 24.3967 10.9667C24.3967 10.5525 24.0609 10.2167 23.6467 10.2167V11.7167ZM10.3133 15.55C9.89913 15.55 9.56334 15.8858 9.56334 16.3C9.56334 16.7142 9.89913 17.05 10.3133 17.05V15.55ZM20.98 17.05C21.3942 17.05 21.73 16.7142 21.73 16.3C21.73 15.8858 21.3942 15.55 20.98 15.55V17.05ZM10.3133 20.8833C9.89913 20.8833 9.56334 21.2191 9.56334 21.6333C9.56334 22.0475 9.89913 22.3833 10.3133 22.3833V20.8833ZM12.98 22.3833C13.3942 22.3833 13.73 22.0475 13.73 21.6333C13.73 21.2191 13.3942 20.8833 12.98 20.8833V22.3833ZM20.4497 24.8303C20.7426 25.1232 21.2174 25.1232 21.5103 24.8303C21.8032 24.5374 21.8032 24.0626 21.5103 23.7697L20.4497 24.8303ZM18.8437 21.103C18.5508 20.8101 18.0759 20.8101 17.783 21.103C17.4901 21.3959 17.4901 21.8708 17.783 22.1637L18.8437 21.103ZM25.5103 20.8303C25.8032 20.5374 25.8032 20.0626 25.5103 19.7697C25.2174 19.4768 24.7426 19.4768 24.4497 19.7697L25.5103 20.8303ZM20.4497 23.7697C20.1568 24.0626 20.1568 24.5374 20.4497 24.8303C20.7426 25.1232 21.2174 25.1232 21.5103 24.8303L20.4497 23.7697ZM10.3133 11.7167H23.6467V10.2167H10.3133V11.7167ZM10.3133 17.05H20.98V15.55H10.3133V17.05ZM10.3133 22.3833H12.98V20.8833H10.3133V22.3833ZM26.3133 27.55H7.64668V29.05H26.3133V27.55ZM7.64668 27.55C6.58756 27.55 5.73001 26.6925 5.73001 25.6333H4.23001C4.23001 27.5209 5.75913 29.05 7.64668 29.05V27.55ZM5.73001 25.6333V6.96672H4.23001V25.6333H5.73001ZM5.73001 6.96672C5.73001 5.9076 6.58756 5.05005 7.64668 5.05005V3.55005C5.75913 3.55005 4.23001 5.07917 4.23001 6.96672H5.73001ZM7.64668 5.05005H26.3133V3.55005H7.64668V5.05005ZM26.3133 5.05005C27.3725 5.05005 28.23 5.9076 28.23 6.96672H29.73C29.73 5.07917 28.2009 3.55005 26.3133 3.55005V5.05005ZM28.23 6.96672V25.6333H29.73V6.96672H28.23ZM28.23 25.6333C28.23 26.6925 27.3725 27.55 26.3133 27.55V29.05C28.2009 29.05 29.73 27.5209 29.73 25.6333H28.23ZM21.5103 23.7697L18.8437 21.103L17.783 22.1637L20.4497 24.8303L21.5103 23.7697ZM24.4497 19.7697L20.4497 23.7697L21.5103 24.8303L25.5103 20.8303L24.4497 19.7697Z" fill="#EDDFBE"/>
</g>
<defs>
<clipPath id="clip0_1_145">
<rect width="32" height="32" fill="white" transform="translate(0.980011 0.300049)"/>
</clipPath>
</defs>
</svg>
