<svg width="33" height="33" viewBox="0 0 33 33" fill="none" xmlns="http://www.w3.org/2000/svg">
<g clip-path="url(#clip0_1_162)">
<path d="M19.6067 26.9667H7.77334C6.20801 26.9667 4.94001 25.6987 4.94001 24.1333V10.7733C4.94001 10.3907 5.01734 10.0107 5.16801 9.66005L6.72401 6.02005C7.16934 4.97738 8.19468 4.30005 9.32934 4.30005H23.2187C24.3533 4.30005 25.3773 4.97738 25.824 6.02005L27.38 9.66005C27.5293 10.012 27.6067 10.3907 27.6067 10.7733V16.3" stroke="#EDDFBE" stroke-width="1.5" stroke-linecap="round" stroke-linejoin="round"/>
<path d="M16.2733 4.30005V10.22" stroke="#EDDFBE" stroke-width="1.5" stroke-linecap="round" stroke-linejoin="round"/>
<path d="M27.5493 10.22H4.99734" stroke="#EDDFBE" stroke-width="1.5" stroke-linecap="round" stroke-linejoin="round"/>
<path d="M8.94001 21.6333H11.6067" stroke="#EDDFBE" stroke-width="1.5" stroke-linecap="round" stroke-linejoin="round"/>
<path d="M23.6067 28.3001C19.9253 28.3001 16.94 25.3148 16.94 21.6334C16.94 17.9521 19.9253 14.9668 23.6067 14.9668C27.2893 14.9668 30.2733 17.9521 30.2733 21.6334C30.2733 25.3148 27.2893 28.3001 23.6067 28.3001Z" stroke="#EDDFBE" stroke-width="1.5" stroke-linecap="round" stroke-linejoin="round"/>
<path d="M26.1987 20.3374L22.9573 23.5788L21.012 21.6334" stroke="#EDDFBE" stroke-width="1.5" stroke-linecap="round" stroke-linejoin="round"/>
</g>
<defs>
<clipPath id="clip0_1_162">
<rect width="32" height="32" fill="white" transform="translate(0.94001 0.300049)"/>
</clipPath>
</defs>
</svg>
